<?xml version="1.0" encoding="UTF-8" standalone="no"?>
<!-- Created with Inkscape (http://www.inkscape.org/) -->

<svg
   width="512"
   height="512"
   viewBox="0 0 512 512"
   version="1.1"
   id="svg1"
   xml:space="preserve"
   inkscape:version="1.4.3 (0d15f75, 2025-12-25)"
   sodipodi:docname="logo.svg"
   inkscape:export-filename="logo-inkscape.png"
   inkscape:export-xdpi="96"
   inkscape:export-ydpi="96"
   xmlns:inkscape="http://www.inkscape.org/namespaces/inkscape"
   xmlns:sodipodi="http://sodipodi.sourceforge.net/DTD/sodipodi-0.dtd"
   xmlns="http://www.w3.org/2000/svg"
   xmlns:svg="http://www.w3.org/2000/svg"
   xmlns:rdf="http://www.w3.org/1999/02/22-rdf-syntax-ns#"
   xmlns:cc="http://creativecommons.org/ns#"
   xmlns:dc="http://purl.org/dc/elements/1.1/"><title
     id="title1">LanBucket Logo</title><sodipodi:namedview
     id="namedview1"
     pagecolor="#ffffff"
     bordercolor="#000000"
     borderopacity="0.25"
     inkscape:showpageshadow="2"
     inkscape:pageopacity="0.0"
     inkscape:pagecheckerboard="0"
     inkscape:deskcolor="#d1d1d1"
     inkscape:document-units="px"
     inkscape:zoom="0.91083305"
     inkscape:cx="259.10347"
     inkscape:cy="381.51887"
     inkscape:window-width="2560"
     inkscape:window-height="1494"
     inkscape:window-x="-11"
     inkscape:window-y="-11"
     inkscape:window-maximized="1"
     inkscape:current-layer="layer2" /><defs
     id="defs1"><inkscape:path-effect
       effect="fillet_chamfer"
       id="path-effect36"
       is_visible="true"
       lpeversion="1"
       nodesatellites_param="F,0,0,1,0,0,0,1 @ F,0,1,1,0,11.64139,0,1 @ F,0,0,1,0,11.64139,0,1 @ F,0,0,1,0,0,0,1 @ F,0,0,1,0,0,0,1 @ F,0,0,1,0,0,0,1 @ F,0,0,1,0,0,0,1 @ F,0,0,1,0,0,0,1 @ F,0,0,1,0,0,0,1 @ F,0,0,1,0,0,0,1"
       radius="0"
       unit="px"
       method="auto"
       mode="F"
       chamfer_steps="1"
       flexible="false"
       use_knot_distance="true"
       apply_no_radius="true"
       apply_with_radius="true"
       only_selected="false"
       hide_knots="false" /></defs><g
     inkscape:groupmode="layer"
     id="layer2"
     inkscape:label="Actual Logo"><rect
       style="fill:#2a7fff;fill-opacity:1;stroke:#000000;stroke-width:0.809983;stroke-opacity:0"
       id="rect6"
       width="222.29019"
       height="164.71445"
       x="151.70622"
       y="336.41223"
       ry="33.270031"
       rx="111.14512" /><rect
       style="fill:#2e82ff;fill-opacity:1;stroke:#000000;stroke-width:0.725596;stroke-dasharray:none;stroke-opacity:0"
       id="rect34"
       width="372.23611"
       height="50.512398"
       x="72.285721"
       y="131.86879"
       rx="0"
       ry="0"
       inkscape:label="bucket ridge" /><path
       id="path33"
       style="display:none;fill:#2a7fff;stroke:#000000;stroke-width:1.36198;stroke-opacity:0"
       inkscape:transform-center-x="0.10787499"
       inkscape:transform-center-y="-10.312638"
       d="m 439.08792,197.22535 -357.556017,0.32097 -9.40827,-66.35005 175.093987,4.49245 197.37616,-3.02955 z"
       sodipodi:nodetypes="cccccc" /><path
       style="display:inline;fill:#0052cc;fill-opacity:1;stroke:#000000;stroke-width:0.730639;stroke-dasharray:none;stroke-opacity:0"
       id="path6"
       sodipodi:type="arc"
       sodipodi:cx="258.40125"
       sodipodi:cy="132.11566"
       sodipodi:rx="186.10951"
       sodipodi:ry="32.043652"
       sodipodi:start="0"
       sodipodi:end="6.2828957"
       sodipodi:arc-type="arc"
       d="M 444.51076,132.11566 A 186.10951,32.043652 0 0 1 258.41472,164.15931 186.10951,32.043652 0 0 1 72.291735,132.1203 186.10951,32.043652 0 0 1 258.36082,100.07201 186.10951,32.043652 0 0 1 444.51075,132.10638"
       sodipodi:open="true"
       inkscape:label="bucket rim" /><path
       style="display:inline;opacity:1;fill:#003482;fill-opacity:1;stroke:#000000;stroke-width:1.07217;stroke-opacity:0"
       id="path9"
       sodipodi:type="arc"
       sodipodi:cx="259.98291"
       sodipodi:cy="132.77797"
       sodipodi:rx="163.22711"
       sodipodi:ry="26.370659"
       sodipodi:start="0"
       sodipodi:end="6.2828108"
       sodipodi:open="true"
       sodipodi:arc-type="arc"
       d="M 423.21002,132.77797 A 163.22711,26.370659 0 0 1 259.99819,159.14863 163.22711,26.370659 0 0 1 96.755801,132.78291 163.22711,26.370659 0 0 1 259.93706,106.40731 163.22711,26.370659 0 0 1 423.21001,132.76809"
       inkscape:label="Inside bucket" /><path
       id="rect35"
       style="display:inline;fill:#aa8800;stroke:#000000;stroke-width:4.188;stroke-opacity:0;fill-opacity:1"
       d="m 168.04388,27.792322 47.68914,-0.148133 a 26.215203,26.215203 20.66174 0 1 18.7959,7.088041 L 334.6073,35.025126 C 339.7408,35.04015 349,41.068 349,45.5 V 87 c 0,4.432 -4.13271,8 -9.26617,8 H 165.26617 C 160.13271,95 156,91.432 156,87 V 45.5 c 0,-4.432 6.37218,-17.721623 12.04388,-17.707678 z"
       sodipodi:nodetypes="sccssssssss"
       inkscape:path-effect="#path-effect36"
       inkscape:original-d="m 168.04388,27.792322 59.33047,-0.184293 7.15457,7.124201 100.07838,0.292896 C 339.7408,35.04015 349,41.068 349,45.5 V 87 c 0,4.432 -4.13271,8 -9.26617,8 H 165.26617 C 160.13271,95 156,91.432 156,87 V 45.5 c 0,-4.432 6.37218,-17.721623 12.04388,-17.707678 z"
       transform="matrix(1.1949654,0.31399377,-0.62665382,2.2934458,9.5997711,-99.71034)"
       inkscape:label="Outer Folder" /><path
       id="rect36"
       style="fill:#d4aa00;stroke:#000000;stroke-width:8.73548;stroke-opacity:0"
       inkscape:label="Inner Folder"
       transform="matrix(0.96716826,0.2541369,-0.26357487,0.96463894,0,0)"
       d="m 195.39364,1.2791351 c 0,0 45.29852,2.0506405 66.64069,0.1324532 5.00153,-0.44952661 7.67033,-7.9302529 12.69491,-8.0127072 39.40155,-0.6465862 118.04049,1.348059 118.04049,1.348059 7.12102,0.081324 12.85324,11.1910997 12.85324,25.0921519 v 72.139946 c 0,13.901052 -5.73255,25.092152 -12.85324,25.092152 H 196.53791 c -7.1207,0 -15.53867,10.78729 -15.19327,-3.1061 l 2.34002,-94.125998 c 0.3454,-13.8933861 4.65661,-17.6423198 11.70898,-18.5599569 z"
       sodipodi:nodetypes="sssssssssss" /><path
       id="path8"
       style="fill:#2e82ff;fill-opacity:1;stroke:#000000;stroke-width:0.985902;stroke-opacity:0"
       inkscape:transform-center-x="5.8982497"
       inkscape:transform-center-y="5.1461162"
       d="m 373.84602,469.66623 -221.50003,1.76306 C 123.70057,354.64333 116.65402,332.85621 91.526278,186.38098 l 86.090362,-2.56886 144.79138,1.24733 108.41015,1.36472 z"
       sodipodi:nodetypes="ccccccc" /><path
       id="rect33"
       style="fill:#2e82ff;stroke:#000000;stroke-width:0.992049;stroke-opacity:0"
       inkscape:label="also ridge"
       d="m 126.19512,152.93276 122.8361,8.92677 123.3361,-6.07322 c 29.75008,-1.46493 72.09399,-19.93674 72.09399,-15.85395 v 42.99774 c 0,4.0828 -23.97944,7.36967 -53.76556,7.36967 h -264.7255 c -29.786121,0 -53.765561,-3.28687 -53.765561,-7.36967 v -42.99774 c 0,-4.08279 24.282657,10.84147 53.990431,13.0004 z"
       sodipodi:nodetypes="scssssssss" /><path
       id="path6-1"
       style="display:inline;fill:#0052cc;fill-opacity:1;stroke:#000000;stroke-width:0.730639;stroke-dasharray:none;stroke-opacity:0"
       inkscape:label="bucket rim front half"
       d="M 444.37695 131.9082 L 422.90234 132.00977 A 163.22711 26.370659 0 0 1 423.21094 132.76758 L 423.21094 132.77734 A 163.22711 26.370659 0 0 1 259.99805 159.14844 A 163.22711 26.370659 0 0 1 97.072266 133.5625 L 72.443359 133.67969 A 186.10951 32.043652 0 0 0 263.41406 163.93945 A 186.10951 32.043652 0 0 0 444.37695 131.9082 z " /><path
       style="fill:#000000;fill-opacity:0;stroke:#002e75;stroke-width:6.6965;stroke-linecap:round;stroke-dasharray:none;stroke-opacity:1"
       d="m 95.861227,190.52395 c 12.170193,4.98289 89.583213,12.13406 167.944373,12.25415 78.36116,0.12008 152.26521,-8.11824 162.82271,-13.12016"
       id="path34"
       sodipodi:nodetypes="csc"
       inkscape:label="shadow" /><path
       style="fill:#666666;fill-opacity:0;stroke:#000000;stroke-width:15.0943;stroke-linecap:round;stroke-dasharray:none;stroke-opacity:1"
       d="M 73.964676,164.01699 C 73.823772,280.17856 125.62507,387.66855 269.92094,389.97492 407.43555,391.19548 437.52147,273.38271 446.57354,160.87556"
       id="path1"
       sodipodi:nodetypes="ccc" /></g><metadata
     id="metadata1"><rdf:RDF><cc:Work
         rdf:about=""><dc:title>LanBucket Logo</dc:title><dc:creator><cc:Agent><dc:title>Justin Becker</dc:title></cc:Agent></dc:creator><dc:rights><cc:Agent><dc:title>Copyright (c) 2026 Justin Becker. All Rights Reserved.</dc:title></cc:Agent></dc:rights></cc:Work></rdf:RDF></metadata></svg>
